<mxfile host="65bd71144e" modified="2020-12-18T02:24:03.638Z" agent="5.0 (Windows NT 10.0; Win64; x64) AppleWebKit/537.36 (KHTML, like Gecko) Code/1.52.1 Chrome/83.0.4103.122 Electron/9.3.5 Safari/537.36" etag="GkFMczPCvAhel-xcmhDC" version="13.10.0" type="embed" pages="4">
    <diagram id="SJugUvKyvNTfiq9eSGXP" name="partition">
        <mxGraphModel dx="1054" dy="617" grid="1" gridSize="10" guides="1" tooltips="1" connect="1" arrows="1" fold="1" page="1" pageScale="1" pageWidth="827" pageHeight="1169" math="0" shadow="0">
            <root>
                <mxCell id="0"/>
                <mxCell id="1" parent="0"/>
                <mxCell id="2" value="" style="endArrow=none;html=1;strokeWidth=2;dashed=1;fontSize=20;" parent="1" edge="1">
                    <mxGeometry width="50" height="50" relative="1" as="geometry">
                        <mxPoint x="160" y="280" as="sourcePoint"/>
                        <mxPoint x="520" y="280" as="targetPoint"/>
                    </mxGeometry>
                </mxCell>
                <mxCell id="3" value="1" style="rounded=0;whiteSpace=wrap;html=1;fillColor=#dae8fc;strokeColor=#6c8ebf;strokeWidth=2;fontSize=20;" parent="1" vertex="1">
                    <mxGeometry x="280" y="200" width="40" height="40" as="geometry"/>
                </mxCell>
                <mxCell id="4" value="2" style="rounded=0;whiteSpace=wrap;html=1;fillColor=#dae8fc;strokeColor=#6c8ebf;strokeWidth=2;fontSize=20;" parent="1" vertex="1">
                    <mxGeometry x="360" y="200" width="40" height="40" as="geometry"/>
                </mxCell>
                <mxCell id="5" value="3" style="rounded=0;whiteSpace=wrap;html=1;fillColor=#dae8fc;strokeColor=#6c8ebf;strokeWidth=2;fontSize=20;" parent="1" vertex="1">
                    <mxGeometry x="440" y="200" width="40" height="40" as="geometry"/>
                </mxCell>
                <mxCell id="6" value="4" style="rounded=0;whiteSpace=wrap;html=1;fillColor=#f8cecc;strokeColor=#b85450;strokeWidth=2;fontSize=20;" parent="1" vertex="1">
                    <mxGeometry x="320" y="320" width="40" height="40" as="geometry"/>
                </mxCell>
                <mxCell id="7" value="5" style="rounded=0;whiteSpace=wrap;html=1;fillColor=#f8cecc;strokeColor=#b85450;strokeWidth=2;fontSize=20;" parent="1" vertex="1">
                    <mxGeometry x="400" y="320" width="40" height="40" as="geometry"/>
                </mxCell>
                <mxCell id="8" value="Partition 0" style="text;html=1;align=center;verticalAlign=middle;resizable=0;points=[];autosize=1;fontSize=20;" parent="1" vertex="1">
                    <mxGeometry x="155" y="250" width="110" height="30" as="geometry"/>
                </mxCell>
                <mxCell id="9" value="Partition 1" style="text;html=1;align=center;verticalAlign=middle;resizable=0;points=[];autosize=1;fontSize=20;" parent="1" vertex="1">
                    <mxGeometry x="155" y="280" width="110" height="30" as="geometry"/>
                </mxCell>
            </root>
        </mxGraphModel>
    </diagram>
    <diagram name="stale read" id="y4Hivt8xqds9HEGhkh33">
        <mxGraphModel dx="1054" dy="617" grid="1" gridSize="10" guides="1" tooltips="1" connect="1" arrows="1" fold="1" page="1" pageScale="1" pageWidth="827" pageHeight="1169" math="0" shadow="0">
            <root>
                <mxCell id="3OEiOfH5tCg0Zoktxa4v-0"/>
                <mxCell id="3OEiOfH5tCg0Zoktxa4v-1" parent="3OEiOfH5tCg0Zoktxa4v-0"/>
                <mxCell id="3OEiOfH5tCg0Zoktxa4v-10" value="" style="endArrow=classic;html=1;strokeWidth=2;edgeStyle=orthogonalEdgeStyle;curved=1;fillColor=#f8cecc;endFill=1;strokeColor=#B85450;" edge="1" parent="3OEiOfH5tCg0Zoktxa4v-1">
                    <mxGeometry width="50" height="50" relative="1" as="geometry">
                        <mxPoint x="360" y="440" as="sourcePoint"/>
                        <mxPoint x="480" y="440" as="targetPoint"/>
                        <Array as="points">
                            <mxPoint x="360" y="360"/>
                            <mxPoint x="480" y="360"/>
                        </Array>
                    </mxGeometry>
                </mxCell>
                <mxCell id="3OEiOfH5tCg0Zoktxa4v-2" value="" style="endArrow=none;html=1;strokeWidth=2;dashed=1;fontSize=20;" edge="1" parent="3OEiOfH5tCg0Zoktxa4v-1">
                    <mxGeometry width="50" height="50" relative="1" as="geometry">
                        <mxPoint x="160" y="280" as="sourcePoint"/>
                        <mxPoint x="520" y="280" as="targetPoint"/>
                    </mxGeometry>
                </mxCell>
                <mxCell id="3OEiOfH5tCg0Zoktxa4v-3" value="1" style="rounded=0;whiteSpace=wrap;html=1;fillColor=#dae8fc;strokeColor=#6c8ebf;strokeWidth=5;fontSize=20;" vertex="1" parent="3OEiOfH5tCg0Zoktxa4v-1">
                    <mxGeometry x="280" y="200" width="40" height="40" as="geometry"/>
                </mxCell>
                <mxCell id="3OEiOfH5tCg0Zoktxa4v-4" value="2" style="rounded=0;whiteSpace=wrap;html=1;fillColor=#dae8fc;strokeColor=#6c8ebf;strokeWidth=2;fontSize=20;" vertex="1" parent="3OEiOfH5tCg0Zoktxa4v-1">
                    <mxGeometry x="360" y="200" width="40" height="40" as="geometry"/>
                </mxCell>
                <mxCell id="3OEiOfH5tCg0Zoktxa4v-5" value="3" style="rounded=0;whiteSpace=wrap;html=1;fillColor=#dae8fc;strokeColor=#6c8ebf;strokeWidth=2;fontSize=20;" vertex="1" parent="3OEiOfH5tCg0Zoktxa4v-1">
                    <mxGeometry x="440" y="200" width="40" height="40" as="geometry"/>
                </mxCell>
                <mxCell id="3OEiOfH5tCg0Zoktxa4v-6" value="4" style="rounded=0;whiteSpace=wrap;html=1;fillColor=#f8cecc;strokeColor=#b85450;strokeWidth=2;fontSize=20;" vertex="1" parent="3OEiOfH5tCg0Zoktxa4v-1">
                    <mxGeometry x="320" y="320" width="40" height="40" as="geometry"/>
                </mxCell>
                <mxCell id="3OEiOfH5tCg0Zoktxa4v-7" value="5" style="rounded=0;whiteSpace=wrap;html=1;fillColor=#f8cecc;strokeColor=#b85450;strokeWidth=5;fontSize=20;" vertex="1" parent="3OEiOfH5tCg0Zoktxa4v-1">
                    <mxGeometry x="400" y="320" width="40" height="40" as="geometry"/>
                </mxCell>
                <mxCell id="3OEiOfH5tCg0Zoktxa4v-8" value="Partition 0" style="text;html=1;align=center;verticalAlign=middle;resizable=0;points=[];autosize=1;fontSize=20;" vertex="1" parent="3OEiOfH5tCg0Zoktxa4v-1">
                    <mxGeometry x="155" y="250" width="110" height="30" as="geometry"/>
                </mxCell>
                <mxCell id="3OEiOfH5tCg0Zoktxa4v-9" value="Partition 1" style="text;html=1;align=center;verticalAlign=middle;resizable=0;points=[];autosize=1;fontSize=20;" vertex="1" parent="3OEiOfH5tCg0Zoktxa4v-1">
                    <mxGeometry x="155" y="280" width="110" height="30" as="geometry"/>
                </mxCell>
                <mxCell id="3OEiOfH5tCg0Zoktxa4v-11" value="&lt;font style=&quot;font-size: 20px&quot;&gt;stale&lt;/font&gt;" style="text;html=1;align=center;verticalAlign=middle;resizable=0;points=[];autosize=1;fontColor=#B85450;" vertex="1" parent="3OEiOfH5tCg0Zoktxa4v-1">
                    <mxGeometry x="450" y="440" width="60" height="20" as="geometry"/>
                </mxCell>
                <mxCell id="3OEiOfH5tCg0Zoktxa4v-12" value="" style="endArrow=classic;html=1;strokeWidth=2;edgeStyle=orthogonalEdgeStyle;curved=1;fillColor=#dae8fc;strokeColor=#6c8ebf;endFill=1;" edge="1" parent="3OEiOfH5tCg0Zoktxa4v-1">
                    <mxGeometry width="50" height="50" relative="1" as="geometry">
                        <mxPoint x="240" y="120" as="sourcePoint"/>
                        <mxPoint x="360" y="120" as="targetPoint"/>
                        <Array as="points">
                            <mxPoint x="240" y="200"/>
                            <mxPoint x="360" y="200"/>
                        </Array>
                    </mxGeometry>
                </mxCell>
                <mxCell id="3OEiOfH5tCg0Zoktxa4v-13" value="&lt;span style=&quot;font-size: 20px&quot;&gt;up-to-date&lt;/span&gt;" style="text;html=1;align=center;verticalAlign=middle;resizable=0;points=[];autosize=1;fontColor=#6C8EBF;" vertex="1" parent="3OEiOfH5tCg0Zoktxa4v-1">
                    <mxGeometry x="305" y="100" width="110" height="20" as="geometry"/>
                </mxCell>
            </root>
        </mxGraphModel>
    </diagram>
    <diagram id="zFDHsIOsVr67uZUbwaAY" name="partial partition">
        <mxGraphModel dx="727" dy="426" grid="1" gridSize="10" guides="1" tooltips="1" connect="1" arrows="1" fold="1" page="1" pageScale="1" pageWidth="827" pageHeight="1169" math="0" shadow="0">
            <root>
                <mxCell id="Z2yCLsaDBcN75lFSNhMo-0"/>
                <mxCell id="Z2yCLsaDBcN75lFSNhMo-1" parent="Z2yCLsaDBcN75lFSNhMo-0"/>
                <mxCell id="00FtRxXDh_jUU4s16u94-10" style="rounded=0;orthogonalLoop=1;jettySize=auto;html=1;exitX=0.25;exitY=1;exitDx=0;exitDy=0;entryX=0.5;entryY=0;entryDx=0;entryDy=0;endArrow=none;endFill=0;strokeColor=#B85450;strokeWidth=2;fontColor=#B85450;dashed=1;" edge="1" parent="Z2yCLsaDBcN75lFSNhMo-1" source="00FtRxXDh_jUU4s16u94-1" target="00FtRxXDh_jUU4s16u94-8">
                    <mxGeometry relative="1" as="geometry"/>
                </mxCell>
                <mxCell id="00FtRxXDh_jUU4s16u94-11" style="edgeStyle=none;rounded=0;orthogonalLoop=1;jettySize=auto;html=1;exitX=0.75;exitY=1;exitDx=0;exitDy=0;entryX=0.5;entryY=0;entryDx=0;entryDy=0;endArrow=none;endFill=0;strokeColor=#82b366;strokeWidth=2;fontColor=#B85450;fillColor=#d5e8d4;" edge="1" parent="Z2yCLsaDBcN75lFSNhMo-1" source="00FtRxXDh_jUU4s16u94-1" target="00FtRxXDh_jUU4s16u94-9">
                    <mxGeometry relative="1" as="geometry"/>
                </mxCell>
                <mxCell id="00FtRxXDh_jUU4s16u94-1" value="1" style="rounded=0;whiteSpace=wrap;html=1;fillColor=#dae8fc;strokeColor=#6c8ebf;strokeWidth=5;fontSize=20;" vertex="1" parent="Z2yCLsaDBcN75lFSNhMo-1">
                    <mxGeometry x="320" y="240" width="40" height="40" as="geometry"/>
                </mxCell>
                <mxCell id="00FtRxXDh_jUU4s16u94-8" value="2" style="rounded=0;whiteSpace=wrap;html=1;fillColor=#dae8fc;strokeColor=#6c8ebf;strokeWidth=2;fontSize=20;" vertex="1" parent="Z2yCLsaDBcN75lFSNhMo-1">
                    <mxGeometry x="240" y="360" width="40" height="40" as="geometry"/>
                </mxCell>
                <mxCell id="00FtRxXDh_jUU4s16u94-12" style="edgeStyle=none;rounded=0;orthogonalLoop=1;jettySize=auto;html=1;exitX=0;exitY=0.5;exitDx=0;exitDy=0;entryX=1;entryY=0.5;entryDx=0;entryDy=0;endArrow=none;endFill=0;strokeColor=#82b366;strokeWidth=2;fontColor=#B85450;fillColor=#d5e8d4;" edge="1" parent="Z2yCLsaDBcN75lFSNhMo-1" source="00FtRxXDh_jUU4s16u94-9" target="00FtRxXDh_jUU4s16u94-8">
                    <mxGeometry relative="1" as="geometry"/>
                </mxCell>
                <mxCell id="00FtRxXDh_jUU4s16u94-9" value="3" style="rounded=0;whiteSpace=wrap;html=1;fillColor=#dae8fc;strokeColor=#6c8ebf;strokeWidth=2;fontSize=20;" vertex="1" parent="Z2yCLsaDBcN75lFSNhMo-1">
                    <mxGeometry x="400" y="360" width="40" height="40" as="geometry"/>
                </mxCell>
            </root>
        </mxGraphModel>
    </diagram>
    <diagram id="gdM47y4fVIyJyh-bpDmT" name="leader-lease-without-check-quorum">
        <mxGraphModel dx="602" dy="353" grid="1" gridSize="10" guides="1" tooltips="1" connect="1" arrows="1" fold="1" page="1" pageScale="1" pageWidth="827" pageHeight="1169" math="0" shadow="0">
            <root>
                <mxCell id="KVXKbdP6TQ7WLM5kgy8J-0"/>
                <mxCell id="KVXKbdP6TQ7WLM5kgy8J-1" parent="KVXKbdP6TQ7WLM5kgy8J-0"/>
                <mxCell id="6FIyhzer9q0W9b24yFdo-11" style="edgeStyle=none;rounded=0;orthogonalLoop=1;jettySize=auto;html=1;exitX=0.25;exitY=1;exitDx=0;exitDy=0;entryX=0.5;entryY=0;entryDx=0;entryDy=0;endArrow=none;endFill=0;strokeColor=#82b366;strokeWidth=2;fontColor=#B85450;fillColor=#d5e8d4;" edge="1" parent="KVXKbdP6TQ7WLM5kgy8J-1" source="6FIyhzer9q0W9b24yFdo-2" target="6FIyhzer9q0W9b24yFdo-3">
                    <mxGeometry relative="1" as="geometry"/>
                </mxCell>
                <mxCell id="6FIyhzer9q0W9b24yFdo-2" value="1" style="rounded=0;whiteSpace=wrap;html=1;fillColor=#dae8fc;strokeColor=#6c8ebf;strokeWidth=5;fontSize=20;" vertex="1" parent="KVXKbdP6TQ7WLM5kgy8J-1">
                    <mxGeometry x="360" y="160" width="40" height="40" as="geometry"/>
                </mxCell>
                <mxCell id="6FIyhzer9q0W9b24yFdo-3" value="2" style="rounded=0;whiteSpace=wrap;html=1;fillColor=#dae8fc;strokeColor=#6c8ebf;strokeWidth=2;fontSize=20;" vertex="1" parent="KVXKbdP6TQ7WLM5kgy8J-1">
                    <mxGeometry x="240" y="280" width="40" height="40" as="geometry"/>
                </mxCell>
                <mxCell id="6FIyhzer9q0W9b24yFdo-5" value="3" style="rounded=0;whiteSpace=wrap;html=1;fillColor=#dae8fc;strokeColor=#6c8ebf;strokeWidth=2;fontSize=20;" vertex="1" parent="KVXKbdP6TQ7WLM5kgy8J-1">
                    <mxGeometry x="280" y="400" width="40" height="40" as="geometry"/>
                </mxCell>
                <mxCell id="6FIyhzer9q0W9b24yFdo-6" value="4" style="rounded=0;whiteSpace=wrap;html=1;fillColor=#dae8fc;strokeColor=#6c8ebf;strokeWidth=2;fontSize=20;" vertex="1" parent="KVXKbdP6TQ7WLM5kgy8J-1">
                    <mxGeometry x="440" y="400" width="40" height="40" as="geometry"/>
                </mxCell>
                <mxCell id="6FIyhzer9q0W9b24yFdo-7" value="5" style="rounded=0;whiteSpace=wrap;html=1;fillColor=#dae8fc;strokeColor=#6c8ebf;strokeWidth=2;fontSize=20;" vertex="1" parent="KVXKbdP6TQ7WLM5kgy8J-1">
                    <mxGeometry x="480" y="280" width="40" height="40" as="geometry"/>
                </mxCell>
                <mxCell id="6FIyhzer9q0W9b24yFdo-12" style="edgeStyle=none;rounded=0;orthogonalLoop=1;jettySize=auto;html=1;exitX=0.5;exitY=0;exitDx=0;exitDy=0;entryX=0.5;entryY=1;entryDx=0;entryDy=0;endArrow=none;endFill=0;strokeColor=#82b366;strokeWidth=2;fontColor=#B85450;fillColor=#d5e8d4;" edge="1" parent="KVXKbdP6TQ7WLM5kgy8J-1" source="6FIyhzer9q0W9b24yFdo-5" target="6FIyhzer9q0W9b24yFdo-3">
                    <mxGeometry relative="1" as="geometry">
                        <mxPoint x="380" y="210" as="sourcePoint"/>
                        <mxPoint x="270" y="290" as="targetPoint"/>
                    </mxGeometry>
                </mxCell>
                <mxCell id="6FIyhzer9q0W9b24yFdo-13" style="edgeStyle=none;rounded=0;orthogonalLoop=1;jettySize=auto;html=1;exitX=1;exitY=0.5;exitDx=0;exitDy=0;entryX=0;entryY=0.5;entryDx=0;entryDy=0;endArrow=none;endFill=0;strokeColor=#82b366;strokeWidth=2;fontColor=#B85450;fillColor=#d5e8d4;" edge="1" parent="KVXKbdP6TQ7WLM5kgy8J-1" source="6FIyhzer9q0W9b24yFdo-5" target="6FIyhzer9q0W9b24yFdo-6">
                    <mxGeometry relative="1" as="geometry">
                        <mxPoint x="310" y="410" as="sourcePoint"/>
                        <mxPoint x="270" y="330" as="targetPoint"/>
                    </mxGeometry>
                </mxCell>
                <mxCell id="6FIyhzer9q0W9b24yFdo-14" style="edgeStyle=none;rounded=0;orthogonalLoop=1;jettySize=auto;html=1;exitX=1;exitY=0.5;exitDx=0;exitDy=0;entryX=0;entryY=0.25;entryDx=0;entryDy=0;endArrow=none;endFill=0;strokeColor=#82b366;strokeWidth=2;fontColor=#B85450;fillColor=#d5e8d4;" edge="1" parent="KVXKbdP6TQ7WLM5kgy8J-1" source="6FIyhzer9q0W9b24yFdo-3" target="6FIyhzer9q0W9b24yFdo-6">
                    <mxGeometry relative="1" as="geometry">
                        <mxPoint x="330" y="430" as="sourcePoint"/>
                        <mxPoint x="450" y="430" as="targetPoint"/>
                    </mxGeometry>
                </mxCell>
            </root>
        </mxGraphModel>
    </diagram>
</mxfile>